<?xml version="1.0" standalone="no"?>
<!DOCTYPE svg PUBLIC "-//W3C//DTD SVG 20010904//EN"
 "http://www.w3.org/TR/2001/REC-SVG-20010904/DTD/svg10.dtd">
<svg version="1.0" xmlns="http://www.w3.org/2000/svg"
 width="256.000000pt" height="256.000000pt" viewBox="0 0 256.000000 256.000000"
 preserveAspectRatio="xMidYMid meet">

<g transform="translate(0.000000,256.000000) scale(0.100000,-0.100000)"
fill="#5662F6" stroke="none">
<path d="M1140 2550 c-470 -58 -870 -360 -1041 -785 -117 -292 -126 -607 -25
-902 117 -342 389 -631 721 -764 292 -117 607 -126 902 -25 342 117 631 389
764 721 117 292 126 607 25 902 -147 431 -519 751 -974 837 -106 20 -277 27
-372 16z m-62 -686 l19 -36 183 0 183 0 20 37 c18 36 20 37 62 32 24 -4 95
-23 157 -43 137 -44 151 -57 230 -210 108 -209 151 -393 146 -619 l-3 -130
-103 -62 c-94 -56 -214 -111 -283 -128 -24 -6 -30 0 -68 59 -22 36 -41 68 -41
71 0 2 30 18 67 35 50 23 64 33 55 42 -9 9 -34 4 -104 -20 -140 -47 -199 -55
-360 -49 -143 5 -195 15 -320 63 -37 14 -50 16 -60 6 -9 -9 4 -19 55 -43 l67
-31 -25 -46 c-14 -26 -34 -58 -45 -72 l-19 -25 -58 20 c-74 25 -222 99 -295
149 l-58 38 0 132 c0 228 36 382 141 594 80 161 100 181 219 220 188 62 213
64 238 16z"/>
<path d="M920 1415 l0 -115 120 0 120 0 0 115 0 115 -120 0 -120 0 0 -115z"/>
<path d="M1400 1415 l0 -115 120 0 120 0 0 115 0 115 -120 0 -120 0 0 -115z"/>
<path d="M1160 1230 l0 -60 -60 0 -60 0 0 -120 0 -120 60 0 60 0 0 60 0 60
120 0 120 0 0 -60 0 -60 60 0 60 0 0 120 0 120 -60 0 -60 0 0 60 0 60 -120 0
-120 0 0 -60z"/>
</g>
</svg>
